<svg version="1.1" id="Layer_1"
	xmlns="http://www.w3.org/2000/svg"
	xmlns:xlink="http://www.w3.org/1999/xlink" x="0px" y="0px" width="100%" viewBox="0 0 1254 1254" enable-background="new 0 0 1254 1254" xml:space="preserve">
	<path fill="transparent" opacity="1.000000" stroke="none" d="
M678.000000,1255.000000 
	C452.000000,1255.000000 226.500000,1255.000000 1.000000,1255.000000 
	C1.000000,837.000000 1.000000,419.000000 1.000000,1.000000 
	C419.000000,1.000000 837.000000,1.000000 1255.000000,1.000000 
	C1255.000000,419.000000 1255.000000,837.000000 1255.000000,1255.000000 
	C1062.833374,1255.000000 870.666687,1255.000000 678.000000,1255.000000 
M829.190552,314.287262 
	C829.261963,314.573090 829.444946,314.719391 830.603149,314.945709 
	C833.992188,315.229706 837.381226,315.513702 840.770203,315.797699 
	C841.157776,315.086792 841.545349,314.375885 841.932922,313.665009 
	C840.389404,312.662323 838.776367,311.751190 837.314636,310.640869 
	C831.539978,306.254547 826.080505,301.390320 820.006226,297.475983 
	C810.533264,291.371460 801.035583,285.072540 790.850769,280.365295 
	C778.590027,274.698486 765.791809,269.983734 752.869385,266.020142 
	C740.516174,262.231140 727.726746,259.837402 715.083313,257.036835 
	C710.848816,256.098877 707.632019,254.917465 705.587769,250.306595 
	C702.133118,242.514450 698.151062,234.830154 693.409851,227.758179 
	C679.397644,206.857605 664.844971,186.328690 648.100403,167.459000 
	C635.223022,152.947342 622.697815,138.113510 609.528137,123.874115 
	C599.713440,113.262115 589.475403,102.976730 578.753784,93.289772 
	C570.794373,86.098480 561.823608,80.010185 553.170959,73.609528 
	C548.822754,70.392967 541.827148,70.927689 539.179199,75.376862 
	C536.344238,80.140465 534.907593,85.736229 532.927673,90.959793 
	C532.927673,90.959793 532.912415,90.893852 532.254578,91.149727 
	C532.197083,92.064911 532.139526,92.980095 531.957947,94.684494 
	C522.702759,129.173920 520.569580,164.539810 518.292053,199.843994 
	C517.199280,199.153976 516.037781,198.551926 515.024841,197.759796 
	C507.965393,192.239075 501.207367,186.283005 493.825104,181.238571 
	C485.829956,175.775375 477.403229,170.890137 468.884369,166.269684 
	C464.617065,163.955154 459.726501,162.789780 454.315796,160.919357 
	C446.606842,158.909271 443.167511,160.310730 443.084229,166.444595 
	C442.944641,176.726639 442.458313,187.205307 444.134735,197.265152 
	C446.898499,213.850296 450.971466,230.242111 455.051086,246.575912 
	C458.846252,261.770782 463.358398,276.786926 467.583099,291.873871 
	C468.538971,295.287445 468.066833,297.724976 464.988159,300.333252 
	C454.773315,308.987244 444.598846,317.752502 435.103577,327.175110 
	C424.677094,337.521790 414.786926,348.439392 405.094025,359.486328 
	C395.132812,370.839020 385.287292,382.340057 376.141479,394.347656 
	C367.680389,405.456299 359.957184,417.156494 352.375732,428.897522 
	C344.192657,441.570282 340.856293,454.935486 347.478729,469.703156 
	C349.879272,475.056183 351.524109,481.070374 351.987183,486.904083 
	C353.004395,499.718323 346.811890,509.853851 337.782379,518.278687 
	C331.286591,524.339539 324.327301,529.901978 317.615448,535.733521 
	C313.642822,539.184998 309.880493,542.889771 305.793182,546.195801 
	C296.884552,553.401367 287.789703,560.376282 278.844604,567.537354 
	C271.172424,573.679443 263.613068,579.962219 255.982941,586.157104 
	C252.181396,589.243530 248.258789,592.184692 244.523788,595.348389 
	C239.235977,599.827393 234.405426,604.922668 228.781906,608.912354 
	C218.032791,616.538574 206.652328,623.276611 195.926651,630.933472 
	C185.648392,638.270935 182.100632,648.668152 190.361923,659.587402 
	C200.672577,673.215698 213.552292,683.995972 228.755829,692.063232 
	C233.695053,694.684021 238.869492,696.879822 242.605545,701.957153 
	C246.313446,706.996338 251.520584,711.296509 256.849823,714.700073 
	C266.898132,721.117676 277.275604,727.126892 287.965271,732.394714 
	C294.762512,735.744385 302.241547,738.904846 309.642578,739.554199 
	C320.668365,740.521667 331.888885,740.004944 342.714722,735.966187 
	C352.306427,732.387878 362.318024,729.944580 372.112213,726.897156 
	C385.394196,722.764587 398.569305,718.268677 411.932190,714.421753 
	C424.618713,710.769470 437.482574,707.730652 450.279053,704.463684 
	C458.166779,702.449829 465.377594,704.469482 470.807770,710.079590 
	C480.603363,720.199707 483.039124,733.351562 481.628357,746.582275 
	C480.453339,757.601746 476.902252,768.401306 474.017090,779.195007 
	C471.376892,789.072266 468.038422,798.762451 465.378204,808.634949 
	C464.319214,812.565125 464.256104,816.763611 463.739594,820.839966 
	C464.265778,821.059998 464.791931,821.280029 465.318115,821.500061 
	C477.949646,813.762268 490.581207,806.024475 503.212738,798.286743 
	C503.500214,798.688782 503.787659,799.090881 504.075104,799.492981 
	C503.700500,800.373230 503.398590,801.293457 502.940521,802.127930 
	C494.852264,816.862305 486.340332,831.382935 478.801270,846.392456 
	C474.617676,854.721619 471.185394,863.648682 468.946655,872.685852 
	C464.926697,888.913208 464.029236,905.458618 464.723450,922.307434 
	C465.476868,940.593445 469.741760,957.893860 475.192566,975.083740 
	C475.941315,977.445068 477.563080,979.529602 479.244415,982.584961 
	C485.061615,961.626648 493.334900,943.396790 508.372589,928.655151 
	C508.751709,932.377380 508.183167,935.897217 508.136078,939.424011 
	C508.008087,949.005981 508.341034,958.598206 508.049164,968.172913 
	C507.627380,982.010376 510.084900,995.336304 513.721985,1008.613647 
	C518.684998,1026.731201 525.255554,1044.089844 534.098206,1060.736450 
	C545.321472,1081.864380 558.563049,1101.296509 575.297119,1118.522827 
	C587.416077,1130.998291 599.906738,1142.833740 614.182739,1152.834595 
	C627.268982,1162.002075 640.871826,1170.156494 655.553955,1176.467529 
	C658.106079,1177.564575 660.767700,1178.407104 663.378723,1179.367188 
	C663.160767,1176.167603 662.942810,1172.968140 662.784607,1168.862549 
	C662.485168,1152.051880 663.746582,1135.555176 669.885010,1119.576904 
	C678.247070,1097.810547 691.035156,1079.097778 708.322571,1063.733521 
	C718.686401,1054.522705 729.934998,1046.168335 741.465088,1038.442871 
	C757.076965,1027.982422 773.319824,1018.461060 789.329773,1008.598083 
	C805.934204,998.368713 822.906677,988.694153 839.093079,977.844360 
	C848.903870,971.268311 857.784485,963.206787 866.595398,955.271179 
	C872.363403,950.076172 877.258850,943.912292 882.788879,937.918213 
	C884.212769,948.631348 879.207947,958.351562 877.854126,969.084045 
	C879.380066,968.286804 880.562134,967.958862 881.350647,967.214172 
	C894.574158,954.723755 908.438110,942.818604 920.757690,929.487732 
	C935.866577,913.138733 948.816345,894.953125 960.592102,876.003540 
	C980.071533,844.657104 993.472656,810.877625 997.810364,774.216003 
	C999.954773,756.091125 998.921570,737.563538 998.862732,719.219666 
	C998.842957,713.062744 997.831848,706.812500 996.497314,700.776550 
	C993.852539,688.815247 990.667542,676.973450 987.555725,664.479431 
	C999.212524,673.348877 1008.164978,684.234924 1016.649780,696.104858 
	C1017.484680,694.655640 1017.989014,693.250732 1017.944641,691.863342 
	C1017.759583,686.079163 1017.700073,680.267944 1017.060059,674.526184 
	C1015.691650,662.251038 1014.406860,649.942017 1012.335999,637.774902 
	C1008.623779,615.963867 1001.499084,595.086609 992.593384,574.929443 
	C982.437134,551.941711 970.583313,529.816040 956.271606,509.047852 
	C945.827881,493.892639 935.578064,478.645355 922.335999,465.679413 
	C919.518555,462.920837 917.316223,459.534027 913.842163,455.205139 
	C921.217590,456.251434 927.339417,456.660828 933.216309,458.082672 
	C939.099670,459.506073 944.738220,461.941040 950.484070,463.932617 
	C950.897522,463.614685 951.310913,463.296753 951.724365,462.978821 
	C949.873779,459.168488 948.420593,455.094391 946.099182,451.596497 
	C938.740662,440.508789 931.432983,429.350861 923.382202,418.770660 
	C916.914185,410.270599 909.641724,402.335419 902.265991,394.587769 
	C895.881531,387.881409 888.958069,381.671295 882.074158,375.462097 
	C875.263733,369.319183 868.332947,363.294159 861.217712,357.509338 
	C854.447388,352.004944 847.403931,346.832977 840.417908,341.598541 
	C834.640625,337.269836 828.934753,332.814240 822.900940,328.867889 
	C815.954407,324.324615 808.665527,320.306091 801.592773,315.950195 
	C801.173401,315.691925 801.352966,314.461182 802.083679,313.736267 
	C806.505066,313.496521 810.926575,313.065277 815.347717,313.070160 
	C819.885132,313.075195 824.422058,313.506531 828.991089,313.944305 
	C828.991089,313.944305 829.184143,313.912323 829.190552,314.287262 
z"/>
	<path fill="#ffffff" opacity="1.000000" stroke="none" d="
M519.000488,199.975128 
	C520.569580,164.539810 522.702759,129.173920 532.280518,94.069427 
	C532.706116,92.600853 532.809265,91.747353 532.912415,90.893852 
	C532.912415,90.893852 532.927673,90.959793 533.234131,90.901855 
	C543.360291,82.617477 545.736389,82.465248 555.691406,90.875732 
	C561.148865,95.486519 566.440186,100.391312 571.218384,105.693443 
	C610.395020,149.165695 640.096863,198.389313 659.783020,253.518051 
	C666.818176,273.219147 672.160583,293.347565 669.327271,314.674103 
	C669.230896,315.399445 669.602173,316.186890 669.907654,317.698578 
	C686.070190,310.631958 697.075012,298.641998 706.686646,283.651001 
	C708.644043,296.657227 705.761902,307.250031 698.087280,317.899689 
	C733.073181,318.926025 763.377441,330.427612 791.198669,348.916382 
	C818.843018,367.287659 842.590637,389.596130 860.349731,418.190399 
	C838.861938,412.615570 817.621521,407.916046 795.486633,412.216217 
	C834.511658,430.844818 866.079651,458.157806 891.217285,492.894104 
	C916.249695,527.485046 932.989502,565.593933 939.223999,609.127625 
	C929.635986,602.543579 921.438843,596.302429 912.660217,591.029236 
	C899.391357,583.058777 889.255249,579.531006 883.456726,580.336365 
	C884.788574,581.160034 885.586975,581.499756 886.193115,582.050903 
	C907.737671,601.642761 922.833496,625.473145 932.574829,652.800903 
	C943.464661,683.350586 947.260498,714.976868 946.441711,747.221863 
	C945.565369,781.733704 938.889954,815.036804 924.665649,846.651672 
	C923.910767,848.329529 922.914978,849.898926 922.023865,851.532410 
	C920.476685,837.169556 919.604797,823.223999 917.320801,809.513733 
	C915.021545,795.711731 909.459412,782.952881 901.070496,771.490417 
	C900.573730,772.849426 900.504761,774.092590 900.583740,775.326355 
	C903.972046,828.262024 888.428894,874.527893 852.188538,913.637451 
	C828.544617,939.153259 800.379822,959.040466 772.008545,978.689636 
	C746.794373,996.152161 721.479736,1013.480408 700.046387,1035.702637 
	C670.737061,1066.090698 653.379517,1101.285767 657.350159,1144.613892 
	C658.127075,1153.091797 660.882141,1161.388306 662.724915,1169.768555 
	C662.942810,1172.968140 663.160767,1176.167603 663.378723,1179.367188 
	C660.767700,1178.407104 658.106079,1177.564575 655.553955,1176.467529 
	C640.871826,1170.156494 627.268982,1162.002075 614.182739,1152.834595 
	C599.906738,1142.833740 587.416077,1130.998291 575.297119,1118.522827 
	C558.563049,1101.296509 545.321472,1081.864380 534.098206,1060.736450 
	C525.255554,1044.089844 518.684998,1026.731201 513.721985,1008.613647 
	C510.084900,995.336304 507.627380,982.010376 508.049164,968.172913 
	C508.341034,958.598206 508.008087,949.005981 508.136078,939.424011 
	C508.183167,935.897217 508.751709,932.377380 508.372589,928.655151 
	C493.334900,943.396790 485.061615,961.626648 479.244415,982.584961 
	C477.563080,979.529602 475.941315,977.445068 475.192566,975.083740 
	C469.741760,957.893860 465.476868,940.593445 464.723450,922.307434 
	C464.029236,905.458618 464.926697,888.913208 468.946655,872.685852 
	C471.185394,863.648682 474.617676,854.721619 478.801270,846.392456 
	C486.340332,831.382935 494.852264,816.862305 502.940521,802.127930 
	C503.398590,801.293457 503.700500,800.373230 504.075104,799.492981 
	C503.787659,799.090881 503.500214,798.688782 503.212738,798.286743 
	C490.581207,806.024475 477.949646,813.762268 465.318115,821.500061 
	C464.791931,821.280029 464.265778,821.059998 463.739594,820.839966 
	C464.256104,816.763611 464.319214,812.565125 465.378204,808.634949 
	C468.038422,798.762451 471.376892,789.072266 474.017090,779.195007 
	C476.902252,768.401306 480.453339,757.601746 481.628357,746.582275 
	C483.039124,733.351562 480.603363,720.199707 470.807770,710.079590 
	C465.377594,704.469482 458.166779,702.449829 450.279053,704.463684 
	C437.482574,707.730652 424.618713,710.769470 411.932190,714.421753 
	C398.569305,718.268677 385.394196,722.764587 372.112213,726.897156 
	C362.318024,729.944580 352.306427,732.387878 342.714722,735.966187 
	C331.888885,740.004944 320.668365,740.521667 309.642578,739.554199 
	C302.241547,738.904846 294.762512,735.744385 287.965271,732.394714 
	C277.275604,727.126892 266.898132,721.117676 256.849823,714.700073 
	C251.520584,711.296509 246.313446,706.996338 242.605545,701.957153 
	C238.869492,696.879822 233.695053,694.684021 228.755829,692.063232 
	C213.552292,683.995972 200.672577,673.215698 190.361923,659.587402 
	C182.100632,648.668152 185.648392,638.270935 195.926651,630.933472 
	C206.652328,623.276611 218.032791,616.538574 228.781906,608.912354 
	C234.405426,604.922668 239.235977,599.827393 244.523788,595.348389 
	C248.258789,592.184692 252.181396,589.243530 255.982941,586.157104 
	C263.613068,579.962219 271.172424,573.679443 278.844604,567.537354 
	C287.789703,560.376282 296.884552,553.401367 305.793182,546.195801 
	C309.880493,542.889771 313.642822,539.184998 317.615448,535.733521 
	C324.327301,529.901978 331.286591,524.339539 337.782379,518.278687 
	C346.811890,509.853851 353.004395,499.718323 351.987183,486.904083 
	C351.524109,481.070374 349.879272,475.056183 347.478729,469.703156 
	C340.856293,454.935486 344.192657,441.570282 352.375732,428.897522 
	C359.957184,417.156494 367.680389,405.456299 376.141479,394.347656 
	C385.287292,382.340057 395.132812,370.839020 405.094025,359.486328 
	C414.786926,348.439392 424.677094,337.521790 435.103577,327.175110 
	C444.598846,317.752502 454.773315,308.987244 464.988159,300.333252 
	C468.066833,297.724976 468.538971,295.287445 467.583099,291.873871 
	C463.358398,276.786926 458.846252,261.770782 455.051086,246.575912 
	C450.971466,230.242111 446.898499,213.850296 444.134735,197.265152 
	C442.458313,187.205307 442.944641,176.726639 443.084229,166.444595 
	C443.167511,160.310730 446.606842,158.909271 454.884460,161.287323 
	C462.020660,167.535782 469.028778,172.998703 475.073090,179.375244 
	C493.093384,198.386047 502.582794,221.023819 500.799072,247.412979 
	C500.068542,258.220520 497.213074,268.884430 495.054657,281.145569 
	C495.828766,279.530457 496.086639,278.497040 496.706360,277.773560 
	C505.598328,267.392487 511.250671,255.284943 513.639893,242.037155 
	C516.145081,228.146027 517.271484,214.006241 519.000488,199.975128 
M430.314545,466.098907 
	C426.581268,466.715942 422.853485,467.368561 419.113647,467.942841 
	C410.455902,469.272308 407.933075,471.907898 406.079254,480.228027 
	C405.012482,485.015869 403.235992,489.666473 401.514771,494.280243 
	C400.371216,497.345612 398.760406,500.236664 396.921997,504.130920 
	C401.302307,502.423309 404.528259,501.227631 407.705811,499.914764 
	C415.493988,496.697052 423.369965,493.637665 429.128845,487.010498 
	C436.886963,478.082672 444.266876,468.703064 457.188416,463.781952 
	C447.265594,462.296387 439.106232,462.876740 430.314545,466.098907 
M505.906921,796.416992 
	C505.906921,796.416992 505.980469,796.686523 505.980469,796.686523 
	C505.980469,796.686523 506.073059,796.416321 505.906921,796.416992 
z"/>
	<path fill="#B7BBC7" opacity="1.000000" stroke="none" d="
M662.754761,1169.315552 
	C660.882141,1161.388306 658.127075,1153.091797 657.350159,1144.613892 
	C653.379517,1101.285767 670.737061,1066.090698 700.046387,1035.702637 
	C721.479736,1013.480408 746.794373,996.152161 772.008545,978.689636 
	C800.379822,959.040466 828.544617,939.153259 852.188538,913.637451 
	C888.428894,874.527893 903.972046,828.262024 900.583740,775.326355 
	C900.504761,774.092590 900.573730,772.849426 901.070496,771.490417 
	C909.459412,782.952881 915.021545,795.711731 917.320801,809.513733 
	C919.604797,823.223999 920.476685,837.169556 922.023865,851.532410 
	C922.914978,849.898926 923.910767,848.329529 924.665649,846.651672 
	C938.889954,815.036804 945.565369,781.733704 946.441711,747.221863 
	C947.260498,714.976868 943.464661,683.350586 932.574829,652.800903 
	C922.833496,625.473145 907.737671,601.642761 886.193115,582.050903 
	C885.586975,581.499756 884.788574,581.160034 883.456726,580.336365 
	C889.255249,579.531006 899.391357,583.058777 912.660217,591.029236 
	C921.438843,596.302429 929.635986,602.543579 939.223999,609.127625 
	C932.989502,565.593933 916.249695,527.485046 891.217285,492.894104 
	C866.079651,458.157806 834.511658,430.844818 795.486633,412.216217 
	C817.621521,407.916046 838.861938,412.615570 860.349731,418.190399 
	C842.590637,389.596130 818.843018,367.287659 791.198669,348.916382 
	C763.377441,330.427612 733.073181,318.926025 698.087280,317.899689 
	C705.761902,307.250031 708.644043,296.657227 706.686646,283.651001 
	C697.075012,298.641998 686.070190,310.631958 669.907654,317.698578 
	C669.602173,316.186890 669.230896,315.399445 669.327271,314.674103 
	C672.160583,293.347565 666.818176,273.219147 659.783020,253.518051 
	C640.096863,198.389313 610.395020,149.165695 571.218384,105.693443 
	C566.440186,100.391312 561.148865,95.486519 555.691406,90.875732 
	C545.736389,82.465248 543.360291,82.617477 533.200562,90.906349 
	C534.907593,85.736229 536.344238,80.140465 539.179199,75.376862 
	C541.827148,70.927689 548.822754,70.392967 553.170959,73.609528 
	C561.823608,80.010185 570.794373,86.098480 578.753784,93.289772 
	C589.475403,102.976730 599.713440,113.262115 609.528137,123.874115 
	C622.697815,138.113510 635.223022,152.947342 648.100403,167.459000 
	C664.844971,186.328690 679.397644,206.857605 693.409851,227.758179 
	C698.151062,234.830154 702.133118,242.514450 705.587769,250.306595 
	C707.632019,254.917465 710.848816,256.098877 715.083313,257.036835 
	C727.726746,259.837402 740.516174,262.231140 752.869385,266.020142 
	C765.791809,269.983734 778.590027,274.698486 790.850769,280.365295 
	C801.035583,285.072540 810.533264,291.371460 820.006226,297.475983 
	C826.080505,301.390320 831.539978,306.254547 837.314636,310.640869 
	C838.776367,311.751190 840.389404,312.662323 841.932922,313.665009 
	C841.545349,314.375885 841.157776,315.086792 840.770203,315.797699 
	C837.381226,315.513702 833.992188,315.229706 829.772095,315.092712 
	C829.022034,314.797241 829.103088,314.354767 829.184143,313.912323 
	C829.184143,313.912323 828.991089,313.944305 828.961853,314.611938 
	C827.399780,314.514313 825.886047,313.136597 824.330933,313.088226 
	C817.034729,312.861359 809.418213,309.141754 802.521545,314.694000 
	C802.429749,314.767853 801.690735,314.037811 801.253845,313.682953 
	C801.352966,314.461182 801.173401,315.691925 801.592773,315.950195 
	C808.665527,320.306091 815.954407,324.324615 822.900940,328.867889 
	C828.934753,332.814240 834.640625,337.269836 840.417908,341.598541 
	C847.403931,346.832977 854.447388,352.004944 861.217712,357.509338 
	C868.332947,363.294159 875.263733,369.319183 882.074158,375.462097 
	C888.958069,381.671295 895.881531,387.881409 902.265991,394.587769 
	C909.641724,402.335419 916.914185,410.270599 923.382202,418.770660 
	C931.432983,429.350861 938.740662,440.508789 946.099182,451.596497 
	C948.420593,455.094391 949.873779,459.168488 951.724365,462.978821 
	C951.310913,463.296753 950.897522,463.614685 950.484070,463.932617 
	C944.738220,461.941040 939.099670,459.506073 933.216309,458.082672 
	C927.339417,456.660828 921.217590,456.251434 913.842163,455.205139 
	C917.316223,459.534027 919.518555,462.920837 922.335999,465.679413 
	C935.578064,478.645355 945.827881,493.892639 956.271606,509.047852 
	C970.583313,529.816040 982.437134,551.941711 992.593384,574.929443 
	C1001.499084,595.086609 1008.623779,615.963867 1012.335999,637.774902 
	C1014.406860,649.942017 1015.691650,662.251038 1017.060059,674.526184 
	C1017.700073,680.267944 1017.759583,686.079163 1017.944641,691.863342 
	C1017.989014,693.250732 1017.484680,694.655640 1016.649780,696.104858 
	C1008.164978,684.234924 999.212524,673.348877 987.555725,664.479431 
	C990.667542,676.973450 993.852539,688.815247 996.497314,700.776550 
	C997.831848,706.812500 998.842957,713.062744 998.862732,719.219666 
	C998.921570,737.563538 999.954773,756.091125 997.810364,774.216003 
	C993.472656,810.877625 980.071533,844.657104 960.592102,876.003540 
	C948.816345,894.953125 935.866577,913.138733 920.757690,929.487732 
	C908.438110,942.818604 894.574158,954.723755 881.350647,967.214172 
	C880.562134,967.958862 879.380066,968.286804 877.854126,969.084045 
	C879.207947,958.351562 884.212769,948.631348 882.788879,937.918213 
	C877.258850,943.912292 872.363403,950.076172 866.595398,955.271179 
	C857.784485,963.206787 848.903870,971.268311 839.093079,977.844360 
	C822.906677,988.694153 805.934204,998.368713 789.329773,1008.598083 
	C773.319824,1018.461060 757.076965,1027.982422 741.465088,1038.442871 
	C729.934998,1046.168335 718.686401,1054.522705 708.322571,1063.733521 
	C691.035156,1079.097778 678.247070,1097.810547 669.885010,1119.576904 
	C663.746582,1135.555176 662.485168,1152.051880 662.754761,1169.315552 
M920.550415,854.468750 
	C920.550415,854.468750 920.481140,854.499268 920.550415,854.468750 
z"/>
	<path fill="#62656A" opacity="1.000000" stroke="none" d="
M518.646240,199.909561 
	C517.271484,214.006241 516.145081,228.146027 513.639893,242.037155 
	C511.250671,255.284943 505.598328,267.392487 496.706360,277.773560 
	C496.086639,278.497040 495.828766,279.530457 495.054657,281.145569 
	C497.213074,268.884430 500.068542,258.220520 500.799072,247.412979 
	C502.582794,221.023819 493.093384,198.386047 475.073090,179.375244 
	C469.028778,172.998703 462.020660,167.535782 455.285461,161.379974 
	C459.726501,162.789780 464.617065,163.955154 468.884369,166.269684 
	C477.403229,170.890137 485.829956,175.775375 493.825104,181.238571 
	C501.207367,186.283005 507.965393,192.239075 515.024841,197.759796 
	C516.037781,198.551926 517.199280,199.153976 518.646240,199.909561 
z"/>
	<path fill="#B7BBC7" opacity="1.000000" stroke="none" d="
M801.668762,313.709595 
	C801.690735,314.037811 802.429749,314.767853 802.521545,314.694000 
	C809.418213,309.141754 817.034729,312.861359 824.330933,313.088226 
	C825.886047,313.136597 827.399780,314.514313 828.945923,314.515411 
	C824.422058,313.506531 819.885132,313.075195 815.347717,313.070160 
	C810.926575,313.065277 806.505066,313.496521 801.668762,313.709595 
z"/>
	<path fill="#B7BBC7" opacity="1.000000" stroke="none" d="
M532.583496,91.021790 
	C532.809265,91.747353 532.706116,92.600853 532.342529,93.674820 
	C532.139526,92.980095 532.197083,92.064911 532.583496,91.021790 
z"/>
	<path fill="#B7BBC7" opacity="1.000000" stroke="none" d="
M829.187378,314.099792 
	C829.103088,314.354767 829.022034,314.797241 829.340271,314.982910 
	C829.444946,314.719391 829.261963,314.573090 829.187378,314.099792 
z"/>
	<path fill="transparent" opacity="1.000000" stroke="none" d="
M430.748138,466.087585 
	C439.106232,462.876740 447.265594,462.296387 457.188416,463.781952 
	C444.266876,468.703064 436.886963,478.082672 429.128845,487.010498 
	C423.369965,493.637665 415.493988,496.697052 407.705811,499.914764 
	C404.528259,501.227631 401.302307,502.423309 396.921997,504.130920 
	C398.760406,500.236664 400.371216,497.345612 401.514771,494.280243 
	C403.235992,489.666473 405.012482,485.015869 406.079254,480.228027 
	C407.933075,471.907898 410.455902,469.272308 419.113647,467.942841 
	C422.853485,467.368561 426.581268,466.715942 430.748138,466.087585 
z"/>
	<path fill="transparent" opacity="1.000000" stroke="none" d="
M505.989990,796.416626 
	C506.073059,796.416321 505.980469,796.686523 505.980469,796.686523 
	C505.980469,796.686523 505.906921,796.416992 505.989990,796.416626 
z"/>
	<path fill="#ffffff" opacity="1.000000" stroke="none" d="
M920.515747,854.484009 
	C920.481140,854.499268 920.550415,854.468750 920.515747,854.484009 
z"/>
</svg>